<?xml version="1.0" encoding="utf-8"?>
<!-- Generator: Adobe Illustrator 17.0.0, SVG Export Plug-In . SVG Version: 6.00 Build 0)  -->
<!DOCTYPE svg PUBLIC "-//W3C//DTD SVG 1.1//EN" "http://www.w3.org/Graphics/SVG/1.1/DTD/svg11.dtd">
<svg version="1.1" id="Warstwa_1" xmlns="http://www.w3.org/2000/svg" xmlns:xlink="http://www.w3.org/1999/xlink" x="0px" y="0px"
	 width="154.109px" height="43.11px" viewBox="0 0 154.109 43.11" enable-background="new 0 0 154.109 43.11" xml:space="preserve">
<g>
	<g>
		<g>
			<path fill="#50514B" d="M28.361,8.43v2.975H15.409v9.432h11.069v2.975H15.409v11.597h-3.672V8.43H28.361z"/>
		</g>
		<g>
			<path fill="#50514B" d="M37.378,35.408h-3.652V8.43h3.652V35.408z"/>
		</g>
		<g>
			<path fill="#50514B" d="M62.982,8.43v3.07h-8.717v23.908h-3.652V11.5h-8.753V8.43H62.982z"/>
		</g>
		<g>
			<path fill="#50514B" d="M83.462,9.051v0.414H68.515v12.725H81.58v0.414H68.515v12.803h-0.452V9.051H83.462z"/>
		</g>
		<g>
			<path fill="#50514B" d="M105.186,9.051v0.414H90.239v12.351h12.688v0.414H90.239v12.763h14.986l-0.039,0.414H89.788V9.051
				H105.186z"/>
		</g>
		<g>
			<path fill="#50514B" d="M124.465,11.463c-0.064,0.074-0.133,0.112-0.207,0.112c-0.113,0-0.286-0.127-0.518-0.385
				c-0.232-0.258-0.571-0.537-1.017-0.839c-0.445-0.3-1.02-0.579-1.722-0.837c-0.703-0.258-1.58-0.385-2.635-0.385
				c-1.08,0-2.037,0.165-2.871,0.499c-0.835,0.332-1.534,0.773-2.098,1.325c-0.566,0.552-0.996,1.193-1.29,1.92
				c-0.296,0.728-0.444,1.487-0.444,2.279c0,1.015,0.198,1.862,0.594,2.542c0.396,0.677,0.912,1.248,1.553,1.713
				c0.64,0.462,1.375,0.85,2.203,1.155c0.829,0.308,1.669,0.603,2.522,0.887c0.854,0.282,1.695,0.579,2.523,0.892
				c0.829,0.313,1.562,0.712,2.202,1.195c0.64,0.483,1.158,1.081,1.554,1.79c0.394,0.709,0.592,1.596,0.592,2.661
				c0,1.081-0.182,2.088-0.546,3.023c-0.364,0.935-0.891,1.75-1.58,2.446c-0.691,0.699-1.538,1.246-2.542,1.649
				c-1.004,0.401-2.146,0.6-3.426,0.6c-0.891,0-1.688-0.077-2.391-0.234c-0.704-0.157-1.347-0.382-1.93-0.677
				c-0.584-0.295-1.121-0.653-1.61-1.073c-0.49-0.422-0.96-0.9-1.412-1.442l0.074-0.074c0.039-0.037,0.069-0.066,0.094-0.085
				c0.025-0.019,0.069-0.027,0.131-0.027c0.076,0,0.186,0.077,0.329,0.234c0.145,0.157,0.343,0.359,0.594,0.603
				c0.251,0.244,0.552,0.505,0.903,0.781c0.352,0.276,0.778,0.537,1.28,0.781s1.077,0.446,1.722,0.603
				c0.647,0.157,1.384,0.236,2.213,0.236c1.217,0,2.3-0.197,3.247-0.584c0.948-0.388,1.75-0.914,2.41-1.572
				c0.659-0.659,1.161-1.426,1.506-2.306c0.344-0.879,0.517-1.814,0.517-2.805c0-0.829-0.129-1.543-0.385-2.146
				c-0.258-0.603-0.606-1.121-1.045-1.554c-0.44-0.433-0.951-0.802-1.534-1.11c-0.584-0.308-1.209-0.584-1.874-0.829
				c-0.665-0.244-1.343-0.47-2.032-0.677c-0.691-0.207-1.369-0.436-2.033-0.688c-0.665-0.25-1.29-0.537-1.874-0.855
				c-0.583-0.321-1.094-0.709-1.534-1.169c-0.44-0.457-0.788-1.004-1.045-1.636c-0.258-0.635-0.385-1.384-0.385-2.25
				c0-0.842,0.157-1.647,0.47-2.42c0.313-0.773,0.772-1.453,1.375-2.043c0.602-0.59,1.345-1.06,2.23-1.413
				c0.886-0.351,1.899-0.526,3.041-0.526c1.28,0,2.412,0.207,3.397,0.622c0.985,0.414,1.911,1.073,2.777,1.976L124.465,11.463z"/>
		</g>
		<g>
			<path fill="#50514B" d="M148.372,9.051v0.414h-9.902v25.942h-0.452V9.465h-9.978V9.051H148.372z"/>
		</g>
	</g>
	<g>
		<rect fill="#50514B" width="154.109" height="0.425"/>
	</g>
	<g>
		<rect y="42.685" fill="#50514B" width="154.109" height="0.426"/>
	</g>
</g>
</svg>
